ffmpeg started on 2025-05-12 at 18:01:34
Report written to "D:\Convert\FFMetrics\reports\ssim_report-6.txt"
Log level: 32
Command line:
ffmpeg -hide_banner -nostdin -i "G:\\\xc0\xed\xe8\xec\xe5\\\xce\xed\xe3\xee\xe8\xed\xe3\xe8\\!_35_\xcb\xe5\xf2\xee_2024\\DreamCast\\\xce\xef\xe5\xf0\xe0\xf6\xe8\xff - \xd1\xe5\xec\xe5\xe9\xea\xe0 \xa8\xe4\xe7\xe0\xea\xf3\xf0\xe0\\[DC] Yozakura-san Chi no Daisakusen - 26_Telegram_HEVC.mkv" -i "G:\\\xc0\xed\xe8\xec\xe5\\\xce\xed\xe3\xee\xe8\xed\xe3\xe8\\!_35_\xcb\xe5\xf2\xee_2024\\DreamCast\\\xce\xef\xe5\xf0\xe0\xf6\xe8\xff - \xd1\xe5\xec\xe5\xe9\xea\xe0 \xa8\xe4\xe7\xe0\xea\xf3\xf0\xe0\\[DC] Yozakura-san Chi no Daisakusen - 26_Telegram.mp4" -lavfi "[0:v]settb=AVTB,setpts=PTS-STARTPTS,format=pix_fmts=yuv420p10,fps=24000/1001,scale=1920:1080:flags=bicubic[main];[1:v]settb=AVTB,setpts=PTS-STARTPTS,format=pix_fmts=yuv420p,fps=24000/1001,scale=1920:1080:flags=bicubic[ref];[main][ref]ssim=eof_action=endall:stats_file='D\\:/Convert/FFMetrics/logs/ssim_logfile-6.txt'" -f null -
Input #0, matroska,webm, from 'G:\Аниме\Онгоинги\!_35_Лето_2024\DreamCast\Операция - Семейка Ёдзакура\[DC] Yozakura-san Chi no Daisakusen - 26_Telegram_HEVC.mkv':
  Metadata:
    COMPATIBLE_BRANDS: isomiso2avc1mp41
    MAJOR_BRAND     : isom
    MINOR_VERSION   : 512
    ENCODER         : Lavf61.7.100
  Duration: 00:24:09.69, start: -0.021000, bitrate: 1446 kb/s
  Stream #0:0: Video: hevc (Main 10), yuv420p10le(tv, bt709, progressive), 1920x1080 [SAR 1:1 DAR 16:9], 23.98 fps, 23.98 tbr, 1k tbn (default)
      Metadata:
        HANDLER_NAME    : VideoHandler
        VENDOR_ID       : [0][0][0][0]
        ENCODER         : Lavc61.19.100 libx265
        BPS             : 1249242
        DURATION        : 00:24:09.572708333
        NUMBER_OF_FRAMES: 34755
        NUMBER_OF_BYTES : 226358413
        _STATISTICS_WRITING_APP: mkvpropedit v66.0.0 ('Josie') 64-bit
        _STATISTICS_WRITING_DATE_UTC: 2025-05-08 18:09:13
        _STATISTICS_TAGS: BPS DURATION NUMBER_OF_FRAMES NUMBER_OF_BYTES
  Stream #0:1: Audio: aac (LC), 48000 Hz, stereo, fltp (default)
      Metadata:
        HANDLER_NAME    : SoundHandler
        VENDOR_ID       : [0][0][0][0]
        ENCODER         : Lavc61.19.100 aac
        BPS             : 193637
        DURATION        : 00:24:09.685000000
        NUMBER_OF_FRAMES: 67955
        NUMBER_OF_BYTES : 35089166
        _STATISTICS_WRITING_APP: mkvpropedit v66.0.0 ('Josie') 64-bit
        _STATISTICS_WRITING_DATE_UTC: 2025-05-08 18:09:13
        _STATISTICS_TAGS: BPS DURATION NUMBER_OF_FRAMES NUMBER_OF_BYTES
Input #1, mov,mp4,m4a,3gp,3g2,mj2, from 'G:\Аниме\Онгоинги\!_35_Лето_2024\DreamCast\Операция - Семейка Ёдзакура\[DC] Yozakura-san Chi no Daisakusen - 26_Telegram.mp4':
  Metadata:
    major_brand     : isom
    minor_version   : 512
    compatible_brands: isomiso2avc1mp41
    encoder         : Lavf61.1.100
  Duration: 00:24:09.64, start: 0.000000, bitrate: 3827 kb/s
  Stream #1:0[0x1](und): Video: h264 (High) (avc1 / 0x31637661), yuv420p(tv, bt709, progressive), 1920x1080 [SAR 1:1 DAR 16:9], 3679 kb/s, 23.98 fps, 23.98 tbr, 24k tbn (default)
      Metadata:
        handler_name    : VideoHandler
        vendor_id       : [0][0][0][0]
        encoder         : Lavc61.3.100 h264_qsv
  Stream #1:1[0x2](und): Audio: aac (HE-AACv2) (mp4a / 0x6134706D), 48000 Hz, stereo, fltp, 144 kb/s (default)
      Metadata:
        handler_name    : SoundHandler
        vendor_id       : [0][0][0][0]
Stream mapping:
  Stream #0:0 (hevc) -> settb:default
  Stream #1:0 (h264) -> settb:default
  ssim:default -> Stream #0:0 (wrapped_avframe)
  Stream #0:1 -> #0:1 (aac (native) -> pcm_s16le (native))
Output #0, null, to 'pipe:':
  Metadata:
    COMPATIBLE_BRANDS: isomiso2avc1mp41
    MAJOR_BRAND     : isom
    MINOR_VERSION   : 512
    encoder         : Lavf61.7.100
  Stream #0:0: Video: wrapped_avframe, yuv420p10le(tv, bt709, progressive), 1920x1080 [SAR 1:1 DAR 16:9], q=2-31, 200 kb/s, 23.98 fps, 23.98 tbn
      Metadata:
        encoder         : Lavc61.19.100 wrapped_avframe
  Stream #0:1: Audio: pcm_s16le, 48000 Hz, stereo, s16, 1536 kb/s (default)
      Metadata:
        HANDLER_NAME    : SoundHandler
        VENDOR_ID       : [0][0][0][0]
        _STATISTICS_TAGS: BPS DURATION NUMBER_OF_FRAMES NUMBER_OF_BYTES
        BPS             : 193637
        DURATION        : 00:24:09.685000000
        NUMBER_OF_FRAMES: 67955
        NUMBER_OF_BYTES : 35089166
        _STATISTICS_WRITING_APP: mkvpropedit v66.0.0 ('Josie') 64-bit
        _STATISTICS_WRITING_DATE_UTC: 2025-05-08 18:09:13
        encoder         : Lavc61.19.100 pcm_s16le
frame=  156 fps=0.0 q=-0.0 size=N/A time=00:00:06.50 bitrate=N/A speed=12.7x    frame=  401 fps=393 q=-0.0 size=N/A time=00:00:16.72 bitrate=N/A speed=16.4x    frame=  641 fps=416 q=-0.0 size=N/A time=00:00:26.73 bitrate=N/A speed=17.3x    frame=  916 fps=446 q=-0.0 size=N/A time=00:00:38.20 bitrate=N/A speed=18.6x    frame= 1165 fps=453 q=-0.0 size=N/A time=00:00:48.59 bitrate=N/A speed=18.9x    frame= 1414 fps=457 q=-0.0 size=N/A time=00:00:58.97 bitrate=N/A speed=  19x    frame= 1663 fps=461 q=-0.0 size=N/A time=00:01:09.36 bitrate=N/A speed=19.2x    frame= 1920 fps=467 q=-0.0 size=N/A time=00:01:20.08 bitrate=N/A speed=19.5x    frame= 2204 fps=475 q=-0.0 size=N/A time=00:01:31.92 bitrate=N/A speed=19.8x    frame= 2473 fps=480 q=-0.0 size=N/A time=00:01:43.14 bitrate=N/A speed=  20x    frame= 2694 fps=475 q=-0.0 size=N/A time=00:01:52.36 bitrate=N/A speed=19.8x    frame= 2880 fps=466 q=-0.0 size=N/A time=00:02:00.12 bitrate=N/A speed=19.4x    frame= 3035 fps=453 q=-0.0 size=N/A time=00:02:06.58 bitrate=N/A speed=18.9x    frame= 3201 fps=444 q=-0.0 size=N/A time=00:02:13.50 bitrate=N/A speed=18.5x    frame= 3413 fps=441 q=-0.0 size=N/A time=00:02:22.35 bitrate=N/A speed=18.4x    frame= 3630 fps=440 q=-0.0 size=N/A time=00:02:31.40 bitrate=N/A speed=18.3x    frame= 3829 fps=437 q=-0.0 size=N/A time=00:02:39.70 bitrate=N/A speed=18.2x    frame= 4036 fps=435 q=-0.0 size=N/A time=00:02:48.33 bitrate=N/A speed=18.1x    frame= 4222 fps=431 q=-0.0 size=N/A time=00:02:56.09 bitrate=N/A speed=  18x    frame= 4368 fps=423 q=-0.0 size=N/A time=00:03:02.18 bitrate=N/A speed=17.7x    frame= 4565 fps=422 q=-0.0 size=N/A time=00:03:10.39 bitrate=N/A speed=17.6x    frame= 4750 fps=419 q=-0.0 size=N/A time=00:03:18.11 bitrate=N/A speed=17.5x    frame= 4931 fps=416 q=-0.0 size=N/A time=00:03:25.66 bitrate=N/A speed=17.4x    frame= 5132 fps=415 q=-0.0 size=N/A time=00:03:34.04 bitrate=N/A speed=17.3x    frame= 5386 fps=418 q=-0.0 size=N/A time=00:03:44.64 bitrate=N/A speed=17.4x    frame= 5628 fps=420 q=-0.0 size=N/A time=00:03:54.73 bitrate=N/A speed=17.5x    frame= 5886 fps=423 q=-0.0 size=N/A time=00:04:05.49 bitrate=N/A speed=17.6x    frame= 6135 fps=425 q=-0.0 size=N/A time=00:04:15.88 bitrate=N/A speed=17.7x    frame= 6364 fps=426 q=-0.0 size=N/A time=00:04:25.43 bitrate=N/A speed=17.8x    frame= 6603 fps=427 q=-0.0 size=N/A time=00:04:35.40 bitrate=N/A speed=17.8x    frame= 6857 fps=429 q=-0.0 size=N/A time=00:04:45.99 bitrate=N/A speed=17.9x    frame= 7116 fps=431 q=-0.0 size=N/A time=00:04:56.79 bitrate=N/A speed=  18x    frame= 7368 fps=433 q=-0.0 size=N/A time=00:05:07.30 bitrate=N/A speed=18.1x    frame= 7634 fps=435 q=-0.0 size=N/A time=00:05:18.40 bitrate=N/A speed=18.2x    frame= 7891 fps=437 q=-0.0 size=N/A time=00:05:29.12 bitrate=N/A speed=18.2x    frame= 8148 fps=439 q=-0.0 size=N/A time=00:05:39.83 bitrate=N/A speed=18.3x    frame= 8392 fps=440 q=-0.0 size=N/A time=00:05:50.01 bitrate=N/A speed=18.4x    frame= 8607 fps=439 q=-0.0 size=N/A time=00:05:58.98 bitrate=N/A speed=18.3x    frame= 8850 fps=440 q=-0.0 size=N/A time=00:06:09.11 bitrate=N/A speed=18.4x    frame= 9094 fps=441 q=-0.0 size=N/A time=00:06:19.29 bitrate=N/A speed=18.4x    frame= 9329 fps=441 q=-0.0 size=N/A time=00:06:29.09 bitrate=N/A speed=18.4x    frame= 9574 fps=442 q=-0.0 size=N/A time=00:06:39.31 bitrate=N/A speed=18.4x    frame= 9775 fps=441 q=-0.0 size=N/A time=00:06:47.69 bitrate=N/A speed=18.4x    frame= 9968 fps=439 q=-0.0 size=N/A time=00:06:55.74 bitrate=N/A speed=18.3x    frame=10215 fps=440 q=-0.0 size=N/A time=00:07:06.05 bitrate=N/A speed=18.4x    frame=10433 fps=440 q=-0.0 size=N/A time=00:07:15.14 bitrate=N/A speed=18.3x    frame=10632 fps=439 q=-0.0 size=N/A time=00:07:23.44 bitrate=N/A speed=18.3x    frame=10876 fps=440 q=-0.0 size=N/A time=00:07:33.61 bitrate=N/A speed=18.3x    frame=11160 fps=442 q=-0.0 size=N/A time=00:07:45.46 bitrate=N/A speed=18.4x    frame=11395 fps=442 q=-0.0 size=N/A time=00:07:55.26 bitrate=N/A speed=18.4x    frame=11647 fps=443 q=-0.0 size=N/A time=00:08:05.77 bitrate=N/A speed=18.5x    frame=11898 fps=444 q=-0.0 size=N/A time=00:08:16.24 bitrate=N/A speed=18.5x    frame=12155 fps=445 q=-0.0 size=N/A time=00:08:26.96 bitrate=N/A speed=18.5x    frame=12412 fps=446 q=-0.0 size=N/A time=00:08:37.68 bitrate=N/A speed=18.6x    frame=12684 fps=447 q=-0.0 size=N/A time=00:08:49.02 bitrate=N/A speed=18.7x    frame=12940 fps=448 q=-0.0 size=N/A time=00:08:59.70 bitrate=N/A speed=18.7x    frame=13179 fps=448 q=-0.0 size=N/A time=00:09:09.67 bitrate=N/A speed=18.7x    frame=13446 fps=449 q=-0.0 size=N/A time=00:09:20.81 bitrate=N/A speed=18.7x    frame=13705 fps=450 q=-0.0 size=N/A time=00:09:31.61 bitrate=N/A speed=18.8x    frame=13939 fps=450 q=-0.0 size=N/A time=00:09:41.37 bitrate=N/A speed=18.8x    frame=14130 fps=449 q=-0.0 size=N/A time=00:09:49.33 bitrate=N/A speed=18.7x    frame=14347 fps=449 q=-0.0 size=N/A time=00:09:58.38 bitrate=N/A speed=18.7x    frame=14567 fps=448 q=-0.0 size=N/A time=00:10:07.56 bitrate=N/A speed=18.7x    frame=14789 fps=448 q=-0.0 size=N/A time=00:10:16.82 bitrate=N/A speed=18.7x    frame=15001 fps=447 q=-0.0 size=N/A time=00:10:25.66 bitrate=N/A speed=18.7x    frame=15255 fps=448 q=-0.0 size=N/A time=00:10:36.26 bitrate=N/A speed=18.7x    frame=15495 fps=448 q=-0.0 size=N/A time=00:10:46.27 bitrate=N/A speed=18.7x    frame=15740 fps=449 q=-0.0 size=N/A time=00:10:56.48 bitrate=N/A speed=18.7x    frame=15975 fps=449 q=-0.0 size=N/A time=00:11:06.29 bitrate=N/A speed=18.7x    frame=16194 fps=448 q=-0.0 size=N/A time=00:11:15.38 bitrate=N/A speed=18.7x    frame=16432 fps=449 q=-0.0 size=N/A time=00:11:25.35 bitrate=N/A speed=18.7x    frame=16676 fps=449 q=-0.0 size=N/A time=00:11:35.52 bitrate=N/A speed=18.7x    frame=16909 fps=449 q=-0.0 size=N/A time=00:11:45.24 bitrate=N/A speed=18.7x    frame=17145 fps=449 q=-0.0 size=N/A time=00:11:55.08 bitrate=N/A speed=18.7x    frame=17395 fps=450 q=-0.0 size=N/A time=00:12:05.51 bitrate=N/A speed=18.8x    frame=17581 fps=449 q=-0.0 size=N/A time=00:12:13.27 bitrate=N/A speed=18.7x    frame=17793 fps=448 q=-0.0 size=N/A time=00:12:22.11 bitrate=N/A speed=18.7x    frame=18011 fps=448 q=-0.0 size=N/A time=00:12:31.20 bitrate=N/A speed=18.7x    frame=18214 fps=447 q=-0.0 size=N/A time=00:12:39.67 bitrate=N/A speed=18.6x    frame=18428 fps=447 q=-0.0 size=N/A time=00:12:48.60 bitrate=N/A speed=18.6x    frame=18670 fps=447 q=-0.0 size=N/A time=00:12:58.69 bitrate=N/A speed=18.6x    frame=18864 fps=446 q=-0.0 size=N/A time=00:13:06.78 bitrate=N/A speed=18.6x    frame=19073 fps=445 q=-0.0 size=N/A time=00:13:15.50 bitrate=N/A speed=18.6x    frame=19298 fps=445 q=-0.0 size=N/A time=00:13:24.88 bitrate=N/A speed=18.6x    frame=19546 fps=446 q=-0.0 size=N/A time=00:13:35.23 bitrate=N/A speed=18.6x    frame=19754 fps=445 q=-0.0 size=N/A time=00:13:43.90 bitrate=N/A speed=18.6x    frame=19983 fps=445 q=-0.0 size=N/A time=00:13:53.45 bitrate=N/A speed=18.6x    frame=20212 fps=445 q=-0.0 size=N/A time=00:14:03.00 bitrate=N/A speed=18.6x    frame=20464 fps=446 q=-0.0 size=N/A time=00:14:13.51 bitrate=N/A speed=18.6x    frame=20724 fps=446 q=-0.0 size=N/A time=00:14:24.36 bitrate=N/A speed=18.6x    frame=20976 fps=447 q=-0.0 size=N/A time=00:14:34.87 bitrate=N/A speed=18.6x    frame=21233 fps=447 q=-0.0 size=N/A time=00:14:45.59 bitrate=N/A speed=18.7x    frame=21480 fps=448 q=-0.0 size=N/A time=00:14:55.89 bitrate=N/A speed=18.7x    frame=21742 fps=448 q=-0.0 size=N/A time=00:15:06.82 bitrate=N/A speed=18.7x    frame=21991 fps=449 q=-0.0 size=N/A time=00:15:17.20 bitrate=N/A speed=18.7x    frame=22222 fps=449 q=-0.0 size=N/A time=00:15:26.84 bitrate=N/A speed=18.7x    frame=22499 fps=450 q=-0.0 size=N/A time=00:15:38.39 bitrate=N/A speed=18.8x    frame=22769 fps=450 q=-0.0 size=N/A time=00:15:49.65 bitrate=N/A speed=18.8x    frame=23051 fps=451 q=-0.0 size=N/A time=00:16:01.41 bitrate=N/A speed=18.8x    frame=23351 fps=453 q=-0.0 size=N/A time=00:16:13.93 bitrate=N/A speed=18.9x    frame=23608 fps=453 q=-0.0 size=N/A time=00:16:24.65 bitrate=N/A speed=18.9x    frame=23848 fps=453 q=-0.0 size=N/A time=00:16:34.66 bitrate=N/A speed=18.9x    frame=24117 fps=454 q=-0.0 size=N/A time=00:16:45.87 bitrate=N/A speed=18.9x    frame=24364 fps=454 q=-0.0 size=N/A time=00:16:56.18 bitrate=N/A speed=18.9x    frame=24636 fps=455 q=-0.0 size=N/A time=00:17:07.52 bitrate=N/A speed=  19x    frame=24891 fps=455 q=-0.0 size=N/A time=00:17:18.16 bitrate=N/A speed=  19x    frame=25092 fps=455 q=-0.0 size=N/A time=00:17:26.54 bitrate=N/A speed=  19x    frame=25287 fps=454 q=-0.0 size=N/A time=00:17:34.67 bitrate=N/A speed=18.9x    frame=25497 fps=453 q=-0.0 size=N/A time=00:17:43.43 bitrate=N/A speed=18.9x    frame=25757 fps=454 q=-0.0 size=N/A time=00:17:54.28 bitrate=N/A speed=18.9x    frame=25982 fps=454 q=-0.0 size=N/A time=00:18:03.66 bitrate=N/A speed=18.9x    frame=26208 fps=454 q=-0.0 size=N/A time=00:18:13.09 bitrate=N/A speed=18.9x    frame=26434 fps=453 q=-0.0 size=N/A time=00:18:22.51 bitrate=N/A speed=18.9x    frame=26685 fps=454 q=-0.0 size=N/A time=00:18:32.98 bitrate=N/A speed=18.9x    frame=26921 fps=454 q=-0.0 size=N/A time=00:18:42.83 bitrate=N/A speed=18.9x    frame=27154 fps=454 q=-0.0 size=N/A time=00:18:52.54 bitrate=N/A speed=18.9x    frame=27379 fps=454 q=-0.0 size=N/A time=00:19:01.93 bitrate=N/A speed=18.9x    frame=27591 fps=453 q=-0.0 size=N/A time=00:19:10.77 bitrate=N/A speed=18.9x    frame=27827 fps=453 q=-0.0 size=N/A time=00:19:20.61 bitrate=N/A speed=18.9x    frame=28062 fps=453 q=-0.0 size=N/A time=00:19:30.41 bitrate=N/A speed=18.9x    frame=28325 fps=454 q=-0.0 size=N/A time=00:19:41.38 bitrate=N/A speed=18.9x    frame=28588 fps=454 q=-0.0 size=N/A time=00:19:52.35 bitrate=N/A speed=18.9x    frame=28832 fps=454 q=-0.0 size=N/A time=00:20:02.53 bitrate=N/A speed=  19x    frame=29088 fps=455 q=-0.0 size=N/A time=00:20:13.21 bitrate=N/A speed=  19x    frame=29325 fps=455 q=-0.0 size=N/A time=00:20:23.09 bitrate=N/A speed=  19x    frame=29568 fps=455 q=-0.0 size=N/A time=00:20:33.23 bitrate=N/A speed=  19x    frame=29801 fps=455 q=-0.0 size=N/A time=00:20:42.95 bitrate=N/A speed=  19x    frame=30009 fps=454 q=-0.0 size=N/A time=00:20:51.62 bitrate=N/A speed=  19x    frame=30211 fps=454 q=-0.0 size=N/A time=00:21:00.05 bitrate=N/A speed=18.9x    frame=30477 fps=454 q=-0.0 size=N/A time=00:21:11.14 bitrate=N/A speed=  19x    frame=30725 fps=455 q=-0.0 size=N/A time=00:21:21.48 bitrate=N/A speed=  19x    frame=30951 fps=455 q=-0.0 size=N/A time=00:21:30.91 bitrate=N/A speed=  19x    frame=31198 fps=455 q=-0.0 size=N/A time=00:21:41.21 bitrate=N/A speed=  19x    frame=31468 fps=455 q=-0.0 size=N/A time=00:21:52.47 bitrate=N/A speed=  19x    frame=31722 fps=456 q=-0.0 size=N/A time=00:22:03.07 bitrate=N/A speed=  19x    frame=31988 fps=456 q=-0.0 size=N/A time=00:22:14.16 bitrate=N/A speed=  19x    frame=32263 fps=456 q=-0.0 size=N/A time=00:22:25.63 bitrate=N/A speed=  19x    frame=32443 fps=456 q=-0.0 size=N/A time=00:22:33.14 bitrate=N/A speed=  19x    frame=32590 fps=455 q=-0.0 size=N/A time=00:22:39.27 bitrate=N/A speed=  19x    frame=32737 fps=453 q=-0.0 size=N/A time=00:22:45.40 bitrate=N/A speed=18.9x    frame=32971 fps=453 q=-0.0 size=N/A time=00:22:55.16 bitrate=N/A speed=18.9x    frame=33133 fps=452 q=-0.0 size=N/A time=00:23:01.92 bitrate=N/A speed=18.9x    frame=33305 fps=452 q=-0.0 size=N/A time=00:23:09.09 bitrate=N/A speed=18.8x    frame=33515 fps=451 q=-0.0 size=N/A time=00:23:17.85 bitrate=N/A speed=18.8x    frame=33727 fps=451 q=-0.0 size=N/A time=00:23:26.69 bitrate=N/A speed=18.8x    frame=33893 fps=450 q=-0.0 size=N/A time=00:23:33.62 bitrate=N/A speed=18.8x    frame=34039 fps=449 q=-0.0 size=N/A time=00:23:39.70 bitrate=N/A speed=18.7x    frame=34190 fps=448 q=-0.0 size=N/A time=00:23:46.00 bitrate=N/A speed=18.7x    frame=34345 fps=447 q=-0.0 size=N/A time=00:23:52.47 bitrate=N/A speed=18.6x    frame=34527 fps=446 q=-0.0 size=N/A time=00:24:00.06 bitrate=N/A speed=18.6x    [Parsed_ssim_10 @ 00000201e0882ec0] SSIM Y:0.993081 (21.599371) U:0.993990 (22.210952) V:0.993440 (21.831187) All:0.993292 (21.734142)
[out#0/null @ 00000201d92a67c0] video:14934KiB audio:271820KiB subtitle:0KiB other streams:0KiB global headers:0KiB muxing overhead: unknown
frame=34755 fps=446 q=-0.0 Lsize=N/A time=00:24:09.57 bitrate=N/A speed=18.6x    
